<?xml version="1.0" standalone="no"?>
<!DOCTYPE svg PUBLIC "-//W3C//DTD SVG 20010904//EN"
 "http://www.w3.org/TR/2001/REC-SVG-20010904/DTD/svg10.dtd">
<svg version="1.0" xmlns="http://www.w3.org/2000/svg"
 width="512.000000pt" height="512.000000pt" viewBox="0 0 512.000000 512.000000"
 preserveAspectRatio="xMidYMid meet">
<metadata>
Created by potrace 1.14, written by Peter Selinger 2001-2017
</metadata>
<g transform="translate(0.000000,512.000000) scale(0.100000,-0.100000)"
fill="#000000" stroke="none">
<path d="M2420 5007 c0 -18 38 -34 75 -32 43 3 45 4 45 15 0 6 -10 8 -24 4
-14 -3 -29 0 -39 10 -19 19 -57 21 -57 3z"/>
<path d="M3180 4957 c0 -41 31 -84 74 -103 52 -22 196 -174 196 -206 0 -8 9
-25 20 -38 11 -13 20 -30 20 -38 0 -9 9 -25 19 -36 11 -12 34 -50 53 -84 18
-35 39 -76 47 -90 8 -15 20 -31 28 -35 7 -4 13 -14 13 -21 0 -7 11 -23 24 -35
28 -27 121 -210 135 -267 5 -21 17 -66 26 -99 9 -33 16 -90 17 -127 0 -63 1
-68 22 -68 12 0 38 9 59 20 46 25 64 25 104 0 29 -17 83 -102 83 -130 0 -20
-27 -10 -38 15 -9 20 -19 25 -47 25 -35 0 -75 -28 -75 -52 0 -7 -11 -24 -25
-38 -28 -29 -46 -100 -26 -100 22 0 51 20 51 35 0 23 21 18 51 -11 18 -17 39
-26 63 -27 29 -1 37 -6 45 -29 6 -15 15 -28 20 -28 17 0 13 33 -10 84 -11 26
-19 59 -17 74 4 38 32 40 48 2 7 -16 16 -30 21 -30 4 0 13 -19 20 -42 6 -24
18 -57 25 -75 9 -20 14 -73 15 -155 0 -67 4 -204 8 -303 4 -99 4 -202 0 -228
-11 -67 -47 -134 -91 -169 -32 -25 -38 -36 -38 -66 1 -21 8 -55 16 -77 9 -22
22 -68 29 -103 11 -56 33 -91 56 -92 4 0 10 21 14 46 7 50 22 62 55 44 21 -11
22 -17 16 -89 -3 -42 -9 -129 -12 -194 -7 -126 -4 -139 57 -258 11 -20 19 -48
19 -62 0 -13 8 -35 19 -48 10 -13 20 -33 22 -44 7 -35 38 -30 54 8 7 18 21 39
29 47 9 7 16 18 17 24 0 6 27 33 60 59 43 35 59 54 59 72 0 13 9 47 20 75 11
28 20 64 20 80 0 16 8 51 19 77 10 26 21 90 25 141 4 51 11 105 17 120 6 15
15 65 20 112 6 47 17 108 24 135 7 28 16 96 20 152 3 56 12 124 19 150 8 26
17 74 20 107 4 32 11 67 17 77 5 10 14 45 20 76 6 31 17 66 25 77 8 11 14 27
14 36 0 8 15 38 33 66 32 48 33 53 22 90 -36 115 -181 405 -272 544 -272 411
-658 733 -1113 928 -108 47 -293 110 -367 126 -32 7 -33 7 -33 -27z m850 -661
c0 -7 -9 -16 -20 -19 -13 -3 -20 -14 -20 -30 0 -14 -4 -29 -10 -32 -6 -4 -10
7 -10 24 0 17 4 31 9 31 5 0 11 9 14 20 6 22 37 28 37 6z"/>
<path d="M906 4267 c-7 -31 1 -54 15 -40 5 5 5 22 0 38 l-8 30 -7 -28z"/>
<path d="M877 4198 c-22 -18 -40 -69 -28 -81 11 -11 51 48 51 76 0 20 -1 21
-23 5z"/>
<path d="M3730 3680 c-19 -10 -60 -24 -90 -30 -30 -7 -70 -20 -88 -31 -19 -11
-52 -19 -77 -19 -27 0 -58 -8 -77 -20 -18 -11 -40 -20 -49 -20 -9 0 -24 -9
-34 -20 -10 -11 -36 -23 -57 -26 -21 -4 -38 -8 -38 -11 0 -7 35 -58 47 -68 6
-5 13 -21 15 -34 4 -32 28 -40 28 -9 0 58 7 64 120 101 59 21 122 37 139 37
18 0 46 7 62 16 23 11 44 14 85 8 42 -5 60 -3 79 10 24 16 26 22 23 74 -3 53
-5 57 -28 59 -14 2 -41 -6 -60 -17z"/>
<path d="M3045 3541 c-16 -7 -11 -10 25 -16 56 -8 115 -3 115 10 0 12 -113 17
-140 6z"/>
<path d="M2827 3500 c-49 -10 -95 -24 -103 -31 -8 -7 -37 -16 -63 -20 -63 -10
-221 -77 -221 -94 0 -7 -19 -29 -42 -48 -125 -104 -168 -137 -177 -137 -5 0
-22 -11 -38 -24 -16 -13 -42 -26 -58 -28 -15 -1 -30 -9 -33 -15 -6 -20 74 -17
82 3 9 24 60 14 64 -12 4 -27 -57 -94 -85 -94 -12 0 -26 -6 -32 -14 -7 -8 -27
-18 -44 -21 -18 -3 -46 -14 -64 -22 -26 -14 -34 -15 -47 -4 -24 20 -19 39 13
56 16 8 31 20 33 26 2 6 19 17 38 23 44 15 48 32 9 40 -25 5 -38 1 -54 -14
-13 -12 -35 -20 -57 -20 -20 0 -38 -6 -40 -12 -3 -9 -25 -12 -75 -10 -55 3
-86 -2 -144 -22 -41 -13 -96 -27 -124 -31 -114 -14 -167 -43 -181 -100 -7 -30
-101 -129 -139 -146 -11 -5 -40 -25 -65 -43 -25 -19 -52 -35 -61 -35 -9 -1
-24 -10 -34 -21 -24 -27 -43 -25 -51 5 -5 19 -13 25 -35 25 -16 0 -38 -6 -49
-12 -29 -18 -40 -2 -53 79 -7 39 -17 76 -23 84 -6 8 -13 21 -17 30 -5 17 -33
19 -56 5 -27 -17 8 -281 52 -401 9 -22 20 -74 26 -114 8 -61 15 -79 40 -105
17 -18 31 -39 31 -48 0 -26 -38 -47 -74 -41 -55 9 -63 -14 -37 -100 12 -40 30
-84 41 -99 11 -15 28 -47 38 -72 9 -24 38 -67 64 -95 25 -27 57 -63 69 -80 26
-35 57 -44 39 -12 -5 11 -10 27 -10 36 0 10 -11 30 -24 46 -27 32 -44 113 -29
137 5 8 20 17 33 19 19 3 22 1 12 -9 -20 -20 -14 -43 18 -66 32 -24 54 -60 81
-137 10 -27 21 -50 26 -50 5 0 25 -16 45 -36 26 -26 39 -50 47 -90 10 -47 62
-164 93 -210 6 -9 8 -24 4 -34 -5 -14 -14 -16 -46 -11 -32 5 -40 3 -40 -9 0
-8 6 -15 13 -15 7 0 20 -9 30 -20 13 -16 29 -20 78 -20 71 0 69 1 245 -209 16
-19 53 -60 82 -90 29 -30 51 -60 49 -66 -2 -5 -42 -11 -93 -12 -114 -4 -133
-8 -144 -37 -8 -21 -17 -25 -82 -31 -100 -10 -216 -14 -461 -14 -120 -1 -207
-5 -205 -10 5 -15 210 -184 294 -243 263 -183 577 -321 895 -392 159 -36 158
-36 157 16 -2 85 15 259 27 275 11 14 8 26 -14 67 -14 27 -36 58 -48 69 -23
19 -30 37 -14 37 5 0 19 -11 32 -25 13 -13 29 -25 34 -25 12 0 82 -66 101 -95
10 -16 10 -56 3 -189 -5 -93 -7 -171 -4 -174 3 -3 69 -10 148 -14 392 -24 834
57 1184 217 73 33 82 40 87 70 4 18 12 38 20 44 7 6 21 37 32 68 10 32 34 80
52 106 18 26 37 59 42 73 5 13 14 24 20 24 5 0 10 6 10 14 0 7 9 25 20 39 11
14 20 34 20 46 0 11 9 25 19 31 18 9 35 58 48 139 7 42 -12 34 -22 -8 -3 -16
-12 -35 -20 -41 -8 -6 -17 -23 -20 -38 -3 -15 -17 -45 -31 -67 -13 -22 -31
-53 -39 -70 -8 -16 -28 -43 -44 -58 l-29 -28 -12 35 c-6 20 -15 36 -20 36 -10
0 -20 -25 -20 -51 0 -12 -7 -19 -20 -19 -11 0 -20 5 -20 10 0 6 -7 10 -16 10
-12 0 -15 -6 -11 -21 4 -15 2 -19 -9 -15 -8 3 -29 -8 -46 -25 -58 -52 -62 -55
-118 -68 -47 -12 -122 -46 -238 -110 -15 -8 -47 -14 -72 -13 -27 0 -52 -6 -62
-14 -10 -10 -53 -19 -116 -25 -93 -8 -108 -7 -197 16 -54 14 -104 25 -112 25
-8 0 -26 9 -40 20 -14 11 -32 20 -41 20 -21 0 -156 103 -240 184 -96 93 -262
297 -262 323 0 3 -26 36 -58 72 -69 78 -83 101 -76 128 4 14 -3 27 -21 41 -22
18 -25 24 -15 41 17 33 68 22 118 -26 7 -7 44 -31 82 -54 38 -22 71 -46 73
-54 3 -7 25 -23 49 -34 37 -19 109 -83 208 -186 84 -87 107 -98 190 -90 38 4
73 11 76 16 3 5 13 9 22 9 26 0 43 15 37 32 -6 16 -88 30 -168 29 -31 -1 -38
3 -35 17 2 9 13 18 26 20 14 2 22 10 22 22 0 32 27 47 94 54 45 5 70 4 85 -5
27 -17 42 -1 16 18 -15 10 -40 14 -94 11 -60 -2 -76 0 -84 14 -8 12 -7 21 3
33 23 28 60 38 147 40 96 3 110 10 254 127 53 43 102 78 108 78 7 0 34 22 61
49 40 40 54 64 78 137 17 49 33 101 36 117 8 36 78 107 105 107 14 0 29 -12
43 -36 20 -34 22 -35 35 -19 7 10 10 29 7 42 -4 13 -1 30 6 38 15 18 6 45 -13
45 -16 0 -47 73 -47 108 0 13 11 33 25 46 33 31 32 50 -9 139 -24 53 -46 83
-78 110 -25 20 -49 37 -53 37 -5 0 -22 11 -39 24 -22 16 -51 25 -101 31 -38 4
-88 13 -110 21 -22 7 -47 14 -56 14 -10 0 -44 14 -77 30 -34 17 -66 30 -73 30
-23 0 80 -85 168 -139 261 -160 320 -211 244 -211 -31 0 -67 -34 -77 -74 -3
-14 -25 -30 -62 -46 -31 -13 -81 -41 -112 -61 -30 -20 -71 -39 -91 -43 -20 -3
-44 -15 -54 -26 -12 -13 -31 -20 -55 -20 -22 0 -48 -8 -63 -20 -14 -11 -40
-20 -59 -20 -18 0 -71 -14 -118 -31 -94 -34 -111 -38 -255 -70 -179 -40 -170
-41 -235 31 -37 42 -64 64 -80 65 -22 1 -25 7 -28 44 -2 24 3 55 12 73 9 17
16 38 16 46 0 12 6 10 25 -8 20 -19 34 -23 76 -21 37 1 58 -4 80 -19 17 -13
37 -19 48 -15 10 3 30 0 44 -6 19 -9 33 -9 59 0 18 7 69 16 113 21 93 9 110
24 139 121 16 51 17 66 6 105 -7 24 -17 47 -21 50 -17 10 -9 24 13 24 39 0
147 60 163 90 8 16 15 31 15 35 0 3 -36 5 -80 5 -60 0 -90 -5 -119 -20 -39
-20 -76 -70 -87 -118 -12 -54 -16 -62 -28 -62 -7 0 -21 9 -30 19 -10 11 -32
27 -50 35 -27 13 -39 13 -64 4 -25 -10 -39 -10 -64 1 -18 7 -48 16 -66 21 -31
8 -35 6 -71 -43 -44 -61 -59 -74 -86 -79 -16 -2 -22 5 -30 39 -9 38 -12 41
-22 24 -6 -10 -15 -36 -19 -57 -3 -22 -14 -52 -24 -69 -10 -16 -39 -73 -65
-125 -27 -52 -57 -107 -67 -122 -10 -14 -18 -33 -18 -41 0 -15 -57 -67 -74
-68 -100 -5 -216 7 -304 30 -24 7 -51 11 -60 10 -20 -3 -72 21 -72 32 0 4 -15
16 -32 28 -24 14 -48 49 -88 127 -30 58 -61 109 -68 111 -19 8 -14 19 13 31
25 12 34 45 15 57 -5 3 -10 15 -10 26 0 14 7 19 24 19 35 0 42 18 17 41 -12
11 -21 27 -21 37 0 9 -7 26 -15 36 -8 11 -15 23 -15 28 0 14 30 8 36 -7 4 -8
11 -15 17 -15 10 0 81 30 120 51 10 6 57 14 105 20 138 15 278 84 421 207 77
66 81 71 81 92 0 31 -19 33 -59 6 -20 -14 -41 -26 -47 -26 -5 -1 -34 -21 -64
-45 -69 -55 -132 -86 -190 -92 -38 -4 -48 -1 -68 20 -22 23 -22 25 -5 55 15
27 22 30 66 30 30 1 59 8 75 19 82 55 168 93 210 93 15 0 38 7 51 16 22 16 24
15 48 -8 22 -22 24 -33 26 -125 2 -84 -1 -104 -15 -120 -10 -11 -18 -30 -18
-42 0 -13 -10 -31 -22 -42 -13 -10 -18 -18 -12 -19 20 0 72 55 76 81 2 15 10
25 24 27 29 4 39 79 17 124 -13 25 -14 39 -4 84 10 41 10 67 0 115 -11 54 -10
65 5 90 10 16 16 40 14 53 -3 26 31 96 47 96 6 0 26 11 45 25 23 17 47 25 75
25 37 0 46 -6 98 -60 31 -34 64 -75 73 -93 17 -33 21 -38 80 -99 33 -35 64
-49 64 -30 0 4 -20 24 -44 44 -51 43 -65 81 -41 109 20 21 12 39 -18 39 -12 0
-43 20 -69 44 -48 44 -48 44 -48 110 0 61 2 67 24 76 13 5 27 14 31 19 14 24
25 8 26 -36 1 -103 29 -172 44 -110 6 21 12 24 51 23 32 -1 46 -6 49 -18 9
-25 30 -28 64 -7 24 15 31 26 31 50 0 46 46 140 65 133 8 -4 15 -18 15 -33 0
-28 45 -81 68 -81 7 0 21 9 32 20 11 11 27 20 35 20 27 0 94 39 106 61 6 12 8
30 5 42 -7 27 10 57 33 57 10 0 29 -8 42 -18 16 -13 35 -18 59 -15 31 4 38 10
54 51 11 25 27 53 36 62 10 10 20 38 24 63 7 46 7 46 -30 62 -20 8 -45 15 -54
15 -10 0 -32 11 -48 25 -36 31 -86 32 -215 5z m71 -167 c2 -9 -9 -13 -35 -13
-21 0 -47 -7 -57 -15 -11 -8 -32 -15 -46 -15 -14 0 -35 -6 -45 -14 -20 -15
-55 -10 -54 8 0 6 24 23 52 38 42 22 64 26 116 25 41 -1 66 -6 69 -14z m-98
-147 c0 -15 -24 -28 -34 -19 -13 14 -5 33 14 33 11 0 20 -6 20 -14z m-1130
-476 c0 -5 -23 -10 -51 -10 -31 0 -48 4 -44 10 3 6 26 10 51 10 24 0 44 -4 44
-10z m-550 -491 c0 -5 -7 -9 -15 -9 -15 0 -20 12 -9 23 8 8 24 -1 24 -14z
m2277 -521 c-3 -8 -6 -5 -6 6 -1 11 2 17 5 13 3 -3 4 -12 1 -19z m-487 -13
c21 -26 4 -45 -40 -45 -25 0 -40 5 -40 13 0 25 17 38 61 46 4 0 12 -6 19 -14z
m-91 -44 c13 -8 12 -15 -4 -45 -19 -35 -39 -46 -88 -46 -28 0 -65 -19 -103
-52 -23 -21 -64 -26 -107 -15 -23 6 -29 4 -37 -18 -10 -26 -25 -31 -50 -15
-12 7 -11 13 10 34 13 15 30 26 38 26 8 0 29 11 47 24 17 14 57 31 88 39 31 8
76 29 99 46 42 31 80 39 107 22z m391 -221 c0 -6 -10 -30 -22 -55 -21 -40 -44
-55 -61 -39 -11 11 5 34 24 34 14 0 19 7 19 29 0 26 9 38 33 40 4 1 7 -4 7 -9z
m-150 -119 c0 -9 -4 -21 -8 -27 -12 -19 -76 -54 -99 -54 -12 0 -28 -9 -37 -21
-9 -13 -26 -21 -46 -22 -29 -2 -33 1 -36 28 -4 43 35 85 80 85 8 0 26 11 39
24 22 22 28 24 66 14 27 -7 41 -16 41 -27z m-243 -111 c2 0 3 -7 3 -15 0 -8
-14 -17 -37 -21 -21 -4 -45 -12 -53 -19 -19 -16 -58 -25 -76 -18 -27 10 -14
38 29 60 56 29 67 31 102 21 16 -4 31 -8 32 -8z m-953 -185 c3 -8 1 -15 -4
-15 -6 0 -10 7 -10 15 0 8 2 15 4 15 2 0 6 -7 10 -15z m113 -84 c74 -62 109
-100 118 -128 3 -13 11 -23 16 -23 9 0 58 -49 107 -107 25 -28 46 -73 38 -80
-11 -11 -63 32 -90 74 -17 27 -44 52 -65 62 -35 16 -91 62 -91 75 0 7 -16 26
-71 83 -33 35 -59 74 -59 87 0 20 47 -1 97 -43z m-547 -370 c0 -22 -16 -36
-24 -22 -8 12 3 41 15 41 5 0 9 -9 9 -19z m-85 -41 c-3 -5 -16 -10 -28 -9 -21
0 -21 1 -2 9 28 12 37 12 30 0z"/>
<path d="M3330 3300 c0 -19 3 -21 12 -12 9 9 9 15 0 24 -9 9 -12 7 -12 -12z"/>
<path d="M3889 3298 c-2 -28 3 -73 9 -80 14 -15 31 9 34 47 3 35 0 40 -19 43
-14 2 -23 -2 -24 -10z"/>
<path d="M2655 2910 c-10 -17 22 -23 87 -17 96 9 97 27 1 27 -45 0 -85 -5 -88
-10z"/>
<path d="M2510 2661 c0 -9 24 -21 41 -21 5 0 9 7 9 15 0 9 -9 15 -25 15 -14 0
-25 -4 -25 -9z"/>
<path d="M2590 2620 c0 -5 23 -10 51 -10 31 0 48 4 44 10 -3 6 -26 10 -51 10
-24 0 -44 -4 -44 -10z"/>
<path d="M5010 2433 c0 -41 4 -63 9 -57 16 16 17 124 1 124 -6 0 -10 -29 -10
-67z"/>
<path d="M1567 2423 c-13 -12 -7 -23 13 -23 11 0 20 7 20 15 0 15 -21 21 -33
8z"/>
<path d="M2050 2233 c-25 -10 -30 -25 -28 -80 2 -62 18 -69 37 -18 7 21 24 41
42 50 34 18 37 30 10 45 -21 11 -37 12 -61 3z"/>
<path d="M1845 2220 c-3 -5 -2 -10 4 -10 5 0 13 5 16 10 3 6 2 10 -4 10 -5 0
-13 -4 -16 -10z"/>
<path d="M1775 2180 c-3 -5 -2 -10 4 -10 5 0 13 5 16 10 3 6 2 10 -4 10 -5 0
-13 -4 -16 -10z"/>
<path d="M1690 2140 c0 -5 9 -10 19 -10 11 0 23 5 26 10 4 6 -5 10 -19 10 -14
0 -26 -4 -26 -10z"/>
<path d="M1605 2100 c-8 -13 15 -13 35 0 12 8 11 10 -7 10 -12 0 -25 -4 -28
-10z"/>
<path d="M1500 2060 c0 -13 30 -13 50 0 11 7 7 10 -17 10 -18 0 -33 -4 -33
-10z"/>
<path d="M1405 2020 c-4 -6 5 -10 19 -10 14 0 26 5 26 10 0 6 -9 10 -19 10
-11 0 -23 -4 -26 -10z"/>
<path d="M4965 1888 c-4 -13 -17 -36 -29 -53 -29 -41 -54 -98 -62 -143 -3 -20
-13 -47 -20 -60 -8 -12 -14 -45 -13 -75 0 -28 -2 -70 -5 -92 l-6 -40 29 55
c60 110 146 358 139 400 -4 32 -25 36 -33 8z"/>
<path d="M1140 1585 c0 -3 9 -24 21 -46 17 -33 23 -38 35 -29 21 19 17 39 -11
50 -14 5 -25 14 -25 20 0 5 -4 10 -10 10 -5 0 -10 -2 -10 -5z"/>
<path d="M3770 1301 c0 -11 5 -23 10 -26 6 -3 10 3 10 14 0 11 -4 23 -10 26
-5 3 -10 -3 -10 -14z"/>
<path d="M3778 1184 c-5 -4 -8 -64 -7 -133 0 -92 3 -119 10 -102 11 28 8 247
-3 235z"/>
<path d="M3095 1140 c-3 -5 -1 -10 4 -10 6 0 11 5 11 10 0 6 -2 10 -4 10 -3 0
-8 -4 -11 -10z"/>
<path d="M3045 1100 c-3 -5 -2 -10 4 -10 5 0 13 5 16 10 3 6 2 10 -4 10 -5 0
-13 -4 -16 -10z"/>
<path d="M2955 1060 c-3 -5 -5 -10 -3 -11 37 -10 58 -8 58 6 0 17 -45 21 -55
5z"/>
<path d="M2865 1020 c3 -5 15 -10 26 -10 10 0 19 5 19 10 0 6 -12 10 -26 10
-14 0 -23 -4 -19 -10z"/>
<path d="M2840 940 c-11 -7 -2 -10 33 -10 26 0 47 5 47 10 0 13 -60 13 -80 0z"/>
<path d="M3863 463 c-17 -27 -43 -59 -57 -72 -41 -39 -30 -45 24 -14 28 16 50
35 50 44 0 9 7 19 15 23 16 6 22 66 7 66 -5 0 -23 -21 -39 -47z"/>
</g>
</svg>
