<svg version="1.0" xmlns="http://www.w3.org/2000/svg" width="512.000000pt" height="512.000000pt" viewBox="0 0 512 512"
    preserveAspectRatio="xMidYMid meet">

    <g transform="translate(0,512) scale(0.1,-0.1)" fill="#aaa" stroke="#000">
        <path d="M3184 4965 c-8 -34 37 -101 74 -110 15 -4 56 -37 92 -74 81 -85 100
-110 100 -133 0 -10 9 -26 20 -35 11 -10 20 -24 20 -32 0 -8 15 -37 34 -65 18
-28 41 -67 50 -86 23 -48 40 -77 59 -98 10 -10 17 -23 17 -29 0 -5 11 -20 25
-33 29 -28 135 -238 135 -269 0 -12 7 -33 16 -46 9 -13 13 -29 9 -34 -3 -6 -1
-20 5 -32 7 -11 13 -55 14 -97 l2 -77 28 3 c15 2 44 12 63 22 35 18 36 18 77
-2 30 -14 50 -34 69 -68 15 -26 27 -55 27 -64 0 -9 4 -16 9 -16 15 0 71 -90
78 -124 3 -17 11 -42 18 -56 21 -42 25 -112 27 -420 l2 -295 -28 -61 c-19 -42
-40 -70 -67 -90 -39 -28 -40 -31 -35 -76 3 -26 12 -61 21 -78 9 -17 19 -54 22
-82 9 -73 63 -120 63 -54 0 37 23 60 53 52 36 -9 40 -41 22 -176 -21 -159 -20
-227 5 -273 11 -20 20 -44 20 -53 0 -9 9 -27 20 -41 11 -14 20 -35 20 -47 0
-34 53 -136 69 -134 8 2 19 17 24 33 6 17 18 36 29 43 10 7 18 19 18 26 0 7
18 26 41 42 53 36 79 70 79 103 0 14 7 39 15 55 9 16 20 59 25 96 5 37 16 80
25 96 8 16 15 55 15 89 0 33 7 92 16 130 8 39 21 113 28 166 7 53 17 102 21
109 4 7 11 66 16 133 5 66 15 141 23 166 8 25 17 71 20 102 3 31 13 72 21 92
8 20 15 49 15 64 0 16 9 45 20 66 11 20 20 43 20 51 0 7 15 33 33 57 20 26 31
52 29 64 -6 31 -89 218 -152 345 -214 427 -598 816 -1040 1053 -156 84 -379
171 -572 223 -12 4 -19 -3 -24 -21z m846 -671 c0 -9 -9 -18 -20 -21 -14 -4
-20 -14 -20 -34 0 -19 -5 -29 -15 -29 -19 0 -19 23 1 66 17 35 54 48 54 18z" />
        <path d="M866 4178 c-9 -12 -16 -31 -16 -42 0 -18 1 -18 19 -2 22 20 33 53 21
61 -5 3 -16 -5 -24 -17z" />
        <path d="M3730 3675 c-14 -8 -47 -19 -75 -25 -66 -15 -105 -30 -105 -41 0 -5
-26 -9 -57 -9 -41 0 -67 -6 -88 -20 -16 -11 -37 -20 -46 -20 -8 0 -30 -11 -49
-25 -19 -14 -47 -25 -62 -25 -35 0 -35 -8 2 -48 16 -18 33 -44 36 -58 9 -37
24 -29 24 15 l0 39 85 27 c47 15 87 31 91 36 3 5 28 9 55 9 28 0 64 7 81 16
23 12 47 15 83 11 71 -7 98 8 107 58 4 22 4 48 2 58 -6 21 -48 22 -84 2z" />
        <path d="M3993 3630 c-13 -5 -23 -16 -23 -23 0 -8 -10 -30 -23 -48 -28 -41
-26 -64 5 -48 17 9 25 6 52 -20 33 -32 81 -42 103 -20 14 14 4 99 -13 120 -8
8 -14 20 -14 26 0 22 -47 29 -87 13z" />
        <path d="M3070 3540 c-10 -7 5 -10 53 -10 43 0 66 4 62 10 -8 13 -95 13 -115
0z" />
        <path d="M2857 3499 c-49 -11 -108 -28 -132 -39 -24 -11 -56 -20 -72 -20 -35
0 -183 -69 -183 -85 0 -7 -11 -20 -24 -28 -13 -9 -30 -22 -37 -30 -8 -7 -25
-19 -38 -26 -13 -7 -49 -33 -81 -57 -32 -24 -69 -48 -84 -54 -30 -11 -35 -30
-7 -30 70 0 35 -113 -39 -129 -57 -11 -49 -31 14 -31 48 0 59 -4 83 -29 59
-60 104 -117 109 -138 8 -29 34 -30 34 -1 0 12 7 29 16 39 19 21 11 39 -16 39
-26 0 -107 60 -116 85 -4 11 -7 44 -6 74 0 48 4 56 34 81 42 35 62 29 54 -18
-7 -44 8 -72 39 -72 13 0 27 -5 31 -11 4 -6 19 -9 36 -5 24 5 30 2 38 -19 5
-14 18 -25 28 -25 27 0 62 42 62 74 0 41 42 127 60 124 8 -2 17 -18 21 -35 6
-33 45 -83 64 -83 6 0 18 9 28 20 9 11 24 20 32 20 29 0 104 40 115 60 6 12 8
30 5 40 -4 11 -3 29 0 40 8 25 56 27 79 4 10 -9 29 -14 48 -12 29 3 36 10 70
78 55 113 48 146 -37 166 -16 3 -39 15 -51 26 -30 27 -76 29 -177 7z m61 -148
c23 -5 46 -12 50 -15 14 -14 -23 -24 -69 -19 -33 4 -57 1 -79 -11 -18 -9 -42
-16 -52 -16 -10 0 -29 -6 -41 -14 -30 -18 -87 -28 -87 -15 0 22 22 49 39 49
10 0 29 9 42 19 38 29 114 38 197 22z m69 -47 c-3 -3 -12 -4 -19 -1 -8 3 -5 6
6 6 11 1 17 -2 13 -5z m-187 -114 c0 -24 -26 -38 -42 -22 -8 8 -8 15 2 27 18
21 40 19 40 -5z" />
        <path d="M4126 3442 c-2 -4 -1 -14 5 -22 7 -12 9 -10 9 8 0 23 -5 28 -14 14z" />
        <path d="M3897 3304 c-11 -11 -8 -72 4 -79 15 -10 19 -3 22 40 2 35 -11 54
-26 39z" />
        <path d="M2100 3104 c0 -11 8 -14 32 -12 46 4 49 28 4 28 -26 0 -36 -4 -36
-16z" />
        <path d="M2006 3065 c-3 -9 -18 -15 -40 -15 -19 0 -41 -7 -50 -15 -10 -11 -36
-15 -91 -15 -62 0 -87 -5 -127 -25 -27 -14 -59 -25 -71 -25 -23 0 -99 -23
-155 -46 -18 -8 -37 -25 -42 -39 -5 -14 -15 -25 -21 -25 -6 0 -9 -9 -6 -19 3
-13 0 -18 -7 -15 -7 3 -23 -6 -37 -18 -23 -22 -51 -42 -104 -78 -13 -8 -44
-30 -69 -47 -26 -18 -54 -33 -62 -33 -7 0 -23 -9 -34 -20 -26 -26 -56 -26 -63
1 -6 22 -6 22 -98 3 -26 -6 -27 -4 -38 56 -6 35 -18 74 -28 89 -10 14 -20 34
-23 43 -3 11 -10 15 -18 9 -10 -6 -10 -13 2 -36 13 -24 13 -33 2 -60 -16 -38
-5 -189 18 -245 16 -38 31 -106 41 -183 5 -36 15 -58 41 -85 19 -20 34 -41 34
-48 0 -23 -37 -45 -74 -42 -20 1 -41 -3 -48 -10 -19 -19 6 -117 46 -182 19
-31 37 -67 41 -81 4 -15 38 -59 76 -100 63 -67 69 -71 69 -47 0 15 -8 33 -20
41 -23 16 -52 119 -43 156 9 38 22 52 42 42 9 -5 34 -6 56 -2 45 7 58 33 26
51 -24 12 -28 48 -7 56 8 3 23 1 33 -5 30 -16 47 2 23 24 -11 10 -20 27 -20
37 0 10 -6 21 -14 24 -8 3 -16 18 -19 33 -4 18 -14 31 -28 34 -23 6 -21 30 3
35 9 2 19 -6 23 -17 3 -12 14 -21 24 -21 9 0 21 -4 26 -9 6 -6 42 2 93 19 49
16 113 29 160 32 64 4 91 12 162 46 89 43 164 93 215 142 17 16 45 42 64 58
24 20 32 34 28 46 -6 16 -9 16 -33 -3 -15 -12 -32 -21 -39 -21 -7 0 -37 -19
-67 -43 -69 -56 -134 -92 -196 -107 -57 -15 -75 -11 -97 24 -15 23 -15 27 6
64 22 37 25 39 64 34 34 -3 52 2 96 27 107 63 142 78 199 86 29 4 51 13 62 28
15 18 18 19 18 5 0 -10 9 -22 19 -27 16 -9 20 -27 26 -107 7 -86 5 -100 -14
-139 -26 -51 -27 -68 -3 -63 11 2 18 14 20 33 2 20 11 34 25 40 19 9 22 16 19
65 -2 30 -2 96 -2 147 1 50 -3 108 -8 127 -7 25 -6 41 4 61 8 15 14 40 14 56
0 40 33 90 69 105 17 7 31 18 31 24 0 16 -66 12 -80 -6 -9 -10 -26 -14 -49
-12 -31 3 -36 7 -39 30 -3 22 1 27 29 33 17 4 33 15 36 24 2 10 18 21 36 27
17 5 32 15 35 22 6 18 -64 16 -72 -3z m-336 -345 c13 -9 13 -11 0 -20 -15 -10
-140 -14 -140 -5 0 2 12 11 28 19 31 17 90 20 112 6z m-649 -143 c-13 -13 -26
-3 -16 12 3 6 11 8 17 5 6 -4 6 -10 -1 -17z m129 -303 c0 -8 -4 -12 -10 -9 -5
3 -10 13 -10 21 0 8 5 12 10 9 6 -3 10 -13 10 -21z" />
        <path d="M2672 2912 c-21 -14 49 -25 79 -13 15 6 18 10 8 10 -9 1 -29 3 -45 6
-16 3 -35 2 -42 -3z" />
        <path d="M2410 2750 c0 -5 9 -14 20 -20 11 -6 20 -17 20 -24 0 -8 9 -16 20
-19 29 -8 24 9 -12 43 -34 31 -48 37 -48 20z" />
        <path d="M2524 2655 c10 -8 23 -12 28 -9 14 9 -2 24 -25 24 -21 -1 -21 -1 -3
-15z" />
        <path d="M2623 2613 c9 -2 25 -2 35 0 9 3 1 5 -18 5 -19 0 -27 -2 -17 -5z" />
        <path d="M5018 2494 c-5 -4 -8 -32 -8 -63 0 -39 3 -52 11 -44 5 5 9 34 7 62
-2 29 -6 49 -10 45z" />
        <path d="M2950 2307 c1 -14 95 -83 177 -129 72 -40 171 -104 201 -131 31 -28
29 -57 -3 -57 -31 0 -75 -41 -75 -69 0 -14 -9 -23 -27 -27 -40 -10 -137 -60
-153 -79 -20 -24 -65 -45 -98 -45 -18 0 -38 -10 -52 -25 -17 -18 -34 -25 -60
-25 -19 0 -44 -6 -55 -14 -11 -7 -48 -18 -82 -24 -34 -6 -90 -23 -125 -37 -35
-15 -79 -31 -98 -36 -158 -42 -241 -62 -276 -66 -39 -5 -43 -2 -99 55 -54 56
-60 60 -93 55 l-34 -6 5 39 c4 21 9 64 13 94 3 30 13 70 20 89 l15 35 30 -37
c27 -32 36 -37 75 -37 43 0 101 -11 178 -35 23 -7 49 -9 65 -4 14 4 60 13 101
19 87 12 101 25 126 108 17 57 14 98 -11 146 -8 15 -15 30 -15 31 0 9 69 38
100 42 49 7 90 39 90 69 0 23 -3 24 -70 24 -120 0 -177 -48 -195 -163 -8 -50
-28 -56 -69 -19 -44 39 -64 45 -114 33 -30 -6 -46 -5 -59 4 -11 8 -35 16 -54
20 -32 6 -36 3 -71 -42 -51 -67 -106 -116 -122 -110 -24 9 -72 -55 -133 -179
-33 -66 -65 -136 -72 -155 -15 -47 -60 -72 -146 -80 -52 -5 -79 -3 -105 8 -19
8 -42 16 -50 18 -8 1 -35 8 -59 15 -25 6 -57 9 -72 6 -27 -5 -99 32 -128 67
-7 9 -17 17 -22 17 -17 0 -9 -37 11 -55 11 -10 22 -34 26 -54 10 -64 73 -209
100 -232 8 -6 14 -22 14 -35 0 -19 -7 -26 -30 -30 -33 -7 -39 -24 -15 -44 10
-8 33 -11 67 -8 51 5 53 5 98 -41 26 -25 66 -71 90 -101 44 -55 139 -159 173
-189 9 -8 17 -23 17 -33 0 -16 -10 -18 -84 -18 -117 0 -141 -6 -157 -42 l-14
-30 -110 -4 c-60 -3 -218 -7 -350 -9 -132 -2 -246 -4 -254 -4 -21 -1 8 -31
124 -125 251 -205 501 -343 800 -441 118 -39 341 -95 377 -95 16 0 19 18 36
230 4 47 11 91 15 97 9 14 -35 97 -63 116 -20 14 -35 53 -22 61 5 3 24 -9 43
-27 19 -17 43 -36 53 -42 11 -6 40 -36 64 -67 40 -52 44 -60 34 -85 -6 -15
-13 -90 -15 -165 l-5 -137 31 -7 c64 -14 458 -8 587 10 245 33 488 100 689
189 87 39 95 45 104 76 5 19 17 45 27 58 10 13 26 46 35 73 9 27 23 54 31 60
7 7 14 18 14 26 0 7 8 21 19 31 21 21 33 61 20 68 -5 3 -16 -3 -26 -15 -25
-28 -43 -25 -49 10 -8 36 -19 32 -27 -10 -5 -20 -12 -30 -25 -30 -11 0 -24
-12 -31 -27 -12 -26 -14 -26 -25 -10 -7 9 -16 17 -19 17 -3 0 -25 -18 -49 -40
-24 -22 -48 -40 -55 -40 -6 0 -24 -5 -40 -12 -15 -6 -34 -10 -40 -9 -18 3
-118 -46 -151 -73 -34 -29 -61 -38 -117 -38 -29 0 -49 -6 -60 -18 -11 -12 -32
-18 -68 -19 -29 0 -76 -6 -104 -12 -44 -10 -59 -10 -90 3 -21 9 -65 21 -98 27
-33 7 -68 14 -78 16 -48 11 -256 163 -347 255 -62 62 -164 188 -224 278 -16
23 -40 54 -54 70 -113 119 -124 134 -118 158 5 18 2 24 -9 24 -25 0 -40 45
-27 75 7 14 18 28 26 31 17 7 107 -36 148 -71 16 -14 35 -25 42 -25 13 0 43
-22 98 -73 16 -15 43 -34 59 -42 16 -9 44 -30 62 -48 18 -17 53 -51 78 -73 24
-23 49 -47 54 -53 25 -27 86 -81 103 -90 28 -15 133 -1 162 22 22 17 23 19 4
13 -12 -4 -34 -1 -50 5 -16 6 -45 11 -65 10 -22 -2 -42 4 -52 14 -15 15 -15
19 3 53 11 20 23 37 28 37 4 1 17 6 30 13 24 14 29 41 10 60 -15 15 6 40 55
62 28 13 55 16 106 12 61 -4 72 -2 118 25 52 29 118 80 158 121 12 12 26 22
31 22 5 0 18 12 28 27 17 23 18 26 2 35 -20 11 -21 37 -1 45 9 3 22 21 30 39
9 23 21 34 34 34 27 0 26 -5 -5 -69 -14 -29 -23 -55 -20 -58 2 -3 9 4 15 15 6
10 23 25 39 31 24 10 34 26 56 89 15 42 33 97 40 122 7 25 20 59 29 77 9 17
20 56 23 87 7 62 19 72 29 26 5 -22 16 -34 40 -44 18 -8 36 -24 40 -35 9 -28
25 -27 25 2 0 28 -23 102 -45 145 -22 43 -14 94 18 107 32 14 32 43 -2 118
-50 112 -142 176 -296 207 -148 30 -174 37 -187 47 -23 18 -48 23 -48 10z
m-35 -637 c0 -22 -5 -25 -38 -28 -32 -3 -40 -9 -57 -42 -20 -39 -26 -43 -121
-64 -14 -3 -43 -18 -65 -33 -31 -22 -49 -27 -91 -27 -43 1 -53 -2 -58 -17 -7
-20 -40 -25 -65 -9 -12 8 -10 14 15 40 16 16 38 30 50 30 12 0 30 9 40 20 9
10 43 24 74 31 34 7 73 25 100 46 43 32 60 37 109 33 14 -1 22 4 22 15 0 18
35 35 65 32 14 -1 20 -9 20 -27z m82 -314 c-4 -10 5 -17 31 -23 23 -5 38 -15
40 -26 5 -27 -63 -87 -98 -87 -17 0 -34 -8 -42 -18 -18 -26 -51 -42 -100 -48
-24 -3 -60 -14 -81 -25 -45 -23 -90 -25 -107 -4 -15 18 -4 35 47 66 28 18 44
21 89 16 52 -5 54 -5 54 19 0 32 31 61 74 69 22 5 36 14 39 26 3 10 12 19 21
19 9 0 16 7 16 15 0 8 5 15 11 15 6 0 9 -6 6 -14z m-1092 -366 c28 -19 83 -69
122 -110 40 -41 97 -100 126 -130 64 -65 127 -151 127 -173 0 -8 7 -17 15 -21
17 -6 20 -26 4 -26 -13 0 -39 22 -128 110 -36 36 -87 81 -112 99 -25 19 -67
63 -94 98 -28 35 -53 63 -56 63 -11 0 -75 106 -71 119 5 15 5 15 67 -29z
m-263 -342 c48 -27 51 -52 6 -45 -39 6 -80 15 -83 19 -2 2 -1 15 2 30 4 23 8
26 28 18 13 -5 34 -15 47 -22z m2108 -68 c0 -5 -4 -10 -10 -10 -5 0 -10 5 -10
10 0 6 5 10 10 10 6 0 10 -4 10 -10z m-2310 -24 c0 -31 -22 -48 -73 -56 -23
-4 -49 -9 -57 -11 -8 -2 -15 3 -15 11 0 12 11 15 50 13 49 -2 51 -1 49 25 -2
35 3 42 27 42 13 0 19 -7 19 -24z m30 -137 c0 -24 -4 -38 -10 -34 -5 3 -10 24
-10 46 0 24 4 38 10 34 6 -3 10 -24 10 -46z" />
        <path d="M1890 2259 c0 -5 5 -7 10 -4 6 3 10 8 10 11 0 2 -4 4 -10 4 -5 0 -10
-5 -10 -11z" />
        <path d="M2047 2213 c-11 -10 -8 -65 3 -58 5 3 19 19 30 35 l21 30 -24 0 c-13
0 -27 -3 -30 -7z" />
        <path d="M1700 2140 c0 -5 4 -10 9 -10 6 0 13 5 16 10 3 6 -1 10 -9 10 -9 0
-16 -4 -16 -10z" />
        <path d="M1510 2060 c0 -13 11 -13 30 0 12 8 11 10 -7 10 -13 0 -23 -4 -23
-10z" />
        <path d="M2011 2014 c0 -11 3 -14 6 -6 3 7 2 16 -1 19 -3 4 -6 -2 -5 -13z" />
        <path d="M4962 1875 c-13 -22 -36 -62 -52 -90 -16 -27 -32 -71 -35 -98 -4 -26
-12 -53 -18 -60 -7 -7 -12 -48 -13 -97 l-1 -85 42 88 c62 130 108 283 103 342
l-3 40 -23 -40z" />
        <path d="M1107 1873 c-6 -10 6 -37 33 -78 11 -16 24 -40 30 -53 14 -32 38 -55
50 -47 6 4 3 17 -10 35 -11 15 -20 35 -20 43 0 8 -8 25 -17 38 -10 13 -23 33
-29 44 -12 21 -30 30 -37 18z" />
        <path d="M1170 1530 c6 -11 15 -20 20 -20 6 0 10 9 10 20 0 13 -7 20 -20 20
-18 0 -19 -3 -10 -20z" />
        <path d="M1308 1263 c7 -3 16 -2 19 1 4 3 -2 6 -13 5 -11 0 -14 -3 -6 -6z" />
        <path d="M2724 979 c-3 -5 6 -9 20 -9 31 0 34 6 6 13 -11 3 -23 1 -26 -4z" />
        <path d="M3967 924 c-4 -4 -7 -14 -7 -23 0 -11 3 -12 11 -4 6 6 10 16 7 23 -2
6 -7 8 -11 4z" />
        <path d="M3934 859 c-19 -23 -23 -69 -7 -69 17 0 25 21 21 56 -2 22 -5 25 -14
13z" />
        <path d="M3893 769 c-7 -7 -13 -17 -13 -22 0 -5 -9 -20 -20 -34 -21 -27 -27
-63 -10 -63 6 0 15 12 21 27 6 16 17 35 25 45 20 21 16 66 -3 47z" />
        <path d="M3881 477 c-5 -13 -16 -29 -25 -36 -9 -7 -16 -18 -16 -23 0 -6 -11
-19 -26 -30 -14 -11 -23 -23 -20 -25 8 -8 76 38 76 51 0 7 9 21 20 31 21 19
27 55 10 55 -6 0 -14 -10 -19 -23z" />
    </g>
</svg>